<svg width="60" height="60" viewBox="0 0 60 60" fill="none" xmlns="http://www.w3.org/2000/svg">
<path d="M35.9525 22.5685C37.4417 22.0482 39.0445 21.7651 40.7142 21.7651C42.351 21.7651 43.9232 22.0371 45.3877 22.5379C50.9825 24.451 55 29.7033 55 35.8828C55 43.6798 48.604 50.0005 40.7142 50.0005H15.7143C9.79695 50.0005 5 45.26 5 39.4123C5 33.5645 9.79695 28.824 15.7143 28.824C16.4246 28.824 17.1187 28.8923 17.7904 29.0225C19.2015 29.2965 20.5132 29.844 21.6667 30.607" stroke="#E8E8E9" stroke-width="3.75" stroke-linecap="round"/>
<path opacity="0.5" d="M17.7904 29.0223C17.2177 27.4945 16.9048 25.8423 16.9048 24.1177C16.9048 16.3207 23.3007 10 31.1904 10C38.5396 10 44.5929 15.4843 45.3876 22.5375" stroke="#C0C0C0" stroke-width="3.75" stroke-linecap="round"/>
</svg>
