<svg width="15" height="15" viewBox="0 0 15 15" fill="none" xmlns="http://www.w3.org/2000/svg">
<path d="M1.8749 7.49058C1.84068 9.11293 2.45092 10.6827 3.57193 11.856C4.69294 13.0292 6.2333 13.7103 7.85553 13.75C8.92534 13.738 9.97219 13.4381 10.886 12.8817C11.7998 12.3253 12.5469 11.533 13.0487 10.5881C13.1024 10.4897 13.1287 10.3786 13.1248 10.2665C13.1208 10.1545 13.0868 10.0455 13.0263 9.9511C12.9658 9.8567 12.881 9.78032 12.7808 9.72998C12.6806 9.67963 12.5686 9.65717 12.4568 9.66495L12.388 9.66995C12.3062 9.6762 12.2237 9.68245 12.138 9.68245C10.8473 9.6429 9.62482 9.09357 8.7382 8.15471C7.85159 7.21585 7.37307 5.96396 7.4074 4.67308C7.40729 3.79983 7.62558 2.94043 8.0424 2.17308C8.09609 2.07476 8.12237 1.96382 8.11848 1.85187C8.1146 1.73991 8.0807 1.63106 8.02032 1.5367C7.95995 1.44234 7.87533 1.36594 7.7753 1.31549C7.67528 1.26505 7.56354 1.24241 7.45178 1.24995C5.90705 1.39645 4.47453 2.12058 3.44059 3.27757C2.40666 4.43456 1.8475 5.93916 1.8749 7.49058ZM6.46428 2.70808C6.26225 3.34352 6.15938 4.0063 6.15928 4.67308C6.13463 6.15584 6.64388 7.59805 7.59412 8.73657C8.54437 9.8751 9.87226 10.634 11.3355 10.875C10.9057 11.3793 10.3726 11.7854 9.77218 12.0658C9.17177 12.3461 8.51814 12.4942 7.85553 12.5C6.5648 12.4604 5.34232 11.9111 4.4557 10.9722C3.56909 10.0334 3.09057 8.78146 3.1249 7.49058C3.1103 6.44406 3.42479 5.41939 4.02398 4.56126C4.62317 3.70312 5.47678 3.05489 6.46428 2.70808Z" fill="black"/>
</svg>
