<svg width="31" height="28" viewBox="0 0 31 28" fill="none" xmlns="http://www.w3.org/2000/svg">
<g clip-path="url(#clip0_33_328)">
<path fill-rule="evenodd" clip-rule="evenodd" d="M14.1911 3.50753C13.3549 2.18978 11.5247 1.69922 10.0818 2.49882L7.93517 3.65047C6.35186 4.49902 5.815 6.4017 6.71949 7.86932L6.72014 7.87036C7.18673 8.62504 7.11349 9.10713 6.96786 9.34407C6.82213 9.58114 6.41412 9.88158 5.48674 9.88158C3.66142 9.88158 2.18896 11.2797 2.18896 12.9732V15.0266C2.18896 16.7202 3.66142 18.1182 5.48674 18.1182C6.41412 18.1182 6.82213 18.4186 6.96786 18.6557C7.11349 18.8927 7.18673 19.3747 6.72014 20.1294L6.71949 20.1305C5.815 21.5982 6.35235 23.5011 7.93569 24.3496L10.0819 25.501C11.5248 26.3005 13.3549 25.8101 14.1911 24.4923L14.3336 24.2617C14.8003 23.5069 15.2843 23.3245 15.5776 23.3245C15.8696 23.3245 16.3499 23.5054 16.8103 24.2584L16.8123 24.2617L16.9492 24.4833L16.9548 24.4923C17.7911 25.8101 19.6211 26.3005 21.064 25.501L23.2107 24.3494C24.7952 23.5002 25.3287 21.6107 24.4287 20.1341L24.4258 20.1294C23.9592 19.3747 24.0324 18.8927 24.178 18.6557C24.3238 18.4186 24.7318 18.1182 25.6592 18.1182C27.4845 18.1182 28.957 16.7202 28.957 15.0266V12.9732C28.957 11.262 27.4656 9.88158 25.6592 9.88158C24.7318 9.88158 24.3238 9.58114 24.178 9.34407C24.0324 9.10713 23.9592 8.62504 24.4258 7.87036L24.4264 7.86932C25.331 6.40155 24.7939 4.49861 23.2102 3.6502L21.0641 2.49882C19.6213 1.69922 17.7911 2.18973 16.9548 3.5075L16.8123 3.73817C16.3456 4.49291 15.8617 4.67533 15.5682 4.67533C15.2763 4.67533 14.7961 4.49445 14.3356 3.74141L14.3336 3.73817L14.1967 3.51648L14.1911 3.50753ZM19.3001 13.9999C19.3001 15.933 17.6287 17.4999 15.5667 17.4999C13.5048 17.4999 11.8334 15.933 11.8334 13.9999C11.8334 12.0668 13.5048 10.4999 15.5667 10.4999C17.6287 10.4999 19.3001 12.0668 19.3001 13.9999Z" fill="#676B73"/>
</g>
<defs>
<clipPath id="clip0_33_328">
<rect width="29.8667" height="28" fill="white" transform="translate(0.633301)"/>
</clipPath>
</defs>
</svg>
